<?xml version="1.0" encoding="UTF-8" standalone="no"?>
<!-- Created with Inkscape (http://www.inkscape.org/) -->

<svg
   xmlns:dc="http://purl.org/dc/elements/1.1/"
   xmlns:cc="http://creativecommons.org/ns#"
   xmlns:rdf="http://www.w3.org/1999/02/22-rdf-syntax-ns#"
   xmlns:svg="http://www.w3.org/2000/svg"
   xmlns="http://www.w3.org/2000/svg"
   xmlns:sodipodi="http://sodipodi.sourceforge.net/DTD/sodipodi-0.dtd"
   xmlns:inkscape="http://www.inkscape.org/namespaces/inkscape"
   width="32"
   height="32"
   viewBox="0 0 8.4666667 8.4666669"
   version="1.1"
   id="svg8"
   inkscape:version="0.92.5 (2060ec1f9f, 2020-04-08)"
   sodipodi:docname="icon_jmc.svg">
  <defs
     id="defs2" />
  <sodipodi:namedview
     id="base"
     pagecolor="#ffffff"
     bordercolor="#666666"
     borderopacity="1.0"
     inkscape:pageopacity="0.0"
     inkscape:pageshadow="2"
     inkscape:zoom="8"
     inkscape:cx="-25.040096"
     inkscape:cy="9.972565"
     inkscape:document-units="mm"
     inkscape:current-layer="layer1"
     showgrid="false"
     units="px"
     inkscape:window-width="1848"
     inkscape:window-height="1016"
     inkscape:window-x="72"
     inkscape:window-y="27"
     inkscape:window-maximized="1" />
  <metadata
     id="metadata5">
    <rdf:RDF>
      <cc:Work
         rdf:about="">
        <dc:format>image/svg+xml</dc:format>
        <dc:type
           rdf:resource="http://purl.org/dc/dcmitype/StillImage" />
        <dc:title />
      </cc:Work>
    </rdf:RDF>
  </metadata>
  <g
     inkscape:label="Layer 1"
     inkscape:groupmode="layer"
     id="layer1"
     transform="translate(0,-288.53329)">
    <circle
       id="path58"
       cx="4.2333331"
       cy="292.70047"
       r="3.8364582"
       style="stroke-width:0.26458332;fill:#d40000;fill-opacity:1" />
    <g
       aria-label="JMC"
       style="font-style:normal;font-variant:normal;font-weight:normal;font-stretch:normal;font-size:4.23333311px;line-height:1.25;font-family:'Ubuntu Mono';-inkscape-font-specification:'Ubuntu Mono';letter-spacing:0px;word-spacing:0px;fill:#ffffff;fill-opacity:1;stroke:none;stroke-width:0.26458332"
       id="text10">
      <path
         d="m 2.8127891,293.01481 q 0,0.1905 -0.0508,0.35984 -0.046567,0.16933 -0.1608667,0.29633 -0.1100667,0.127 -0.2878667,0.2032 -0.1777999,0.072 -0.4317999,0.072 -0.2667,0 -0.4445,-0.0677 -0.1778,-0.0677 -0.3005667,-0.1651 l 0.1989667,-0.41486 q 0.1058333,0.0677 0.2328333,0.13123 0.1312333,0.0635 0.2667,0.0635 0.2032,0 0.3259667,-0.10583 0.1269999,-0.11007 0.1269999,-0.40217 v -1.2827 H 1.4115558 v -0.4318 h 1.4012333 z"
         style="font-style:normal;font-variant:normal;font-weight:bold;font-stretch:normal;font-size:4.23333311px;font-family:'Ubuntu Mono';-inkscape-font-specification:'Ubuntu Mono Bold';text-align:center;text-anchor:middle;fill:#ffffff;stroke-width:0.26458332"
         id="path815" />
      <path
         d="m 3.7568142,291.27068 q 0.029633,0.0889 0.071967,0.2286 0.046567,0.1397 0.097367,0.30057 0.0508,0.16086 0.1015999,0.32596 0.0508,0.1651 0.097367,0.3048 0.0508,-0.15663 0.1058333,-0.32173 0.055033,-0.16933 0.1058334,-0.32173 0.0508,-0.15664 0.093133,-0.2921 0.042333,-0.13547 0.0762,-0.22437 h 0.4318 q 0.029633,0.3429 0.055033,0.66887 0.029633,0.32596 0.046567,0.6477 0.021167,0.3175 0.033867,0.64346 0.0127,0.32174 0.021167,0.6604 H 4.6161809 l 0.0254,-2.03623 -0.3217333,1.10913 H 3.9388476 l -0.3090334,-1.10913 0.021167,2.03623 H 3.1726143 q 0.0127,-0.32173 0.0254,-0.66886 0.016933,-0.34714 0.033867,-0.69004 0.016933,-0.3429 0.0381,-0.66463 0.0254,-0.32173 0.055033,-0.5969 z"
         style="font-style:normal;font-variant:normal;font-weight:bold;font-stretch:normal;font-size:4.23333311px;font-family:'Ubuntu Mono';-inkscape-font-specification:'Ubuntu Mono Bold';text-align:center;text-anchor:middle;fill:#ffffff;stroke-width:0.26458332"
         id="path817" />
      <path
         d="m 6.4449726,293.94615 q -0.5545666,0 -0.8466666,-0.3556 -0.2921,-0.3556 -0.2921,-1.01177 0,-0.32597 0.0889,-0.57997 0.0889,-0.254 0.2455334,-0.42756 0.1608666,-0.1778 0.3767666,-0.2667 0.2201333,-0.0931 0.4783666,-0.0931 0.1397,0 0.2497667,0.0254 0.1143,0.0212 0.1989667,0.0508 0.084667,0.0296 0.1396999,0.0635 0.059267,0.0339 0.0889,0.0508 l -0.1354666,0.41487 q -0.097367,-0.0635 -0.2370667,-0.10583 -0.1354666,-0.0466 -0.3132666,-0.0466 -0.1227667,0 -0.2413,0.0466 -0.1143,0.0423 -0.2074333,0.14816 -0.0889,0.1016 -0.1481667,0.27517 -0.055033,0.17357 -0.055033,0.4318 0,0.44873 0.1524,0.69003 0.1566333,0.23707 0.5079999,0.23707 0.2032,0 0.3344334,-0.0466 0.1354666,-0.0466 0.2158999,-0.0931 l 0.1312334,0.41063 q -0.1100667,0.0677 -0.3005667,0.127 -0.1862666,0.055 -0.4318,0.055 z"
         style="font-style:normal;font-variant:normal;font-weight:bold;font-stretch:normal;font-size:4.23333311px;font-family:'Ubuntu Mono';-inkscape-font-specification:'Ubuntu Mono Bold';text-align:center;text-anchor:middle;fill:#ffffff;stroke-width:0.26458332"
         id="path819" />
    </g>
  </g>
</svg>
